%TF.GenerationSoftware,KiCad,Pcbnew,no-vcs-found-e2d3fce~60~ubuntu16.04.1*%
%TF.CreationDate,2017-09-21T10:41:24-04:00*%
%TF.ProjectId,i2c_interface_terminator,6932635F696E746572666163655F7465,1.0*%
%TF.SameCoordinates,Original*%
%TF.FileFunction,Copper,L1,Top,Signal*%
%TF.FilePolarity,Positive*%
%FSLAX46Y46*%
G04 Gerber Fmt 4.6, Leading zero omitted, Abs format (unit mm)*
G04 Created by KiCad (PCBNEW no-vcs-found-e2d3fce~60~ubuntu16.04.1) date Thu Sep 21 10:41:24 2017*
%MOMM*%
%LPD*%
G01*
G04 APERTURE LIST*
%TA.AperFunction,NonConductor*%
%ADD10C,0.228600*%
%TD*%
%TA.AperFunction,SMDPad,CuDef*%
%ADD11R,0.787400X1.600200*%
%TD*%
%TA.AperFunction,SMDPad,CuDef*%
%ADD12R,1.600200X0.787400*%
%TD*%
%TA.AperFunction,ViaPad*%
%ADD13C,0.889000*%
%TD*%
%TA.AperFunction,Conductor*%
%ADD14C,0.812800*%
%TD*%
%TA.AperFunction,Conductor*%
%ADD15C,0.203200*%
%TD*%
G04 APERTURE END LIST*
D10*
X116840000Y-101600000D02*
X101600000Y-101600000D01*
X116840000Y-110490000D02*
X116840000Y-101600000D01*
X101600000Y-110490000D02*
X116840000Y-110490000D01*
X101600000Y-101600000D02*
X101600000Y-110490000D01*
D11*
%TO.P,R1,2*%
%TO.N,/DSCLP*%
X112801400Y-103505000D03*
%TO.P,R1,1*%
%TO.N,VAA*%
X110718600Y-103505000D03*
%TD*%
D12*
%TO.P,R2,1*%
%TO.N,/DSCLP*%
X114808000Y-105003600D03*
%TO.P,R2,2*%
%TO.N,/DSCLM*%
X114808000Y-107086400D03*
%TD*%
D11*
%TO.P,R3,2*%
%TO.N,GND*%
X110718600Y-108585000D03*
%TO.P,R3,1*%
%TO.N,/DSCLM*%
X112801400Y-108585000D03*
%TD*%
%TO.P,R4,1*%
%TO.N,VAA*%
X107721400Y-103505000D03*
%TO.P,R4,2*%
%TO.N,/DSDAP*%
X105638600Y-103505000D03*
%TD*%
D12*
%TO.P,R5,2*%
%TO.N,/DSDAM*%
X103632000Y-107086400D03*
%TO.P,R5,1*%
%TO.N,/DSDAP*%
X103632000Y-105003600D03*
%TD*%
D11*
%TO.P,R6,1*%
%TO.N,/DSDAM*%
X105638600Y-108585000D03*
%TO.P,R6,2*%
%TO.N,GND*%
X107721400Y-108585000D03*
%TD*%
D13*
%TO.N,/DSCLP*%
X114808000Y-103124000D03*
%TO.N,/DSCLM*%
X114808000Y-108966000D03*
%TO.N,VAA*%
X109220000Y-104775000D03*
%TO.N,GND*%
X109220000Y-107315000D03*
%TO.N,/DSDAP*%
X103632000Y-103124000D03*
%TO.N,/DSDAM*%
X103632000Y-108966000D03*
%TD*%
D14*
%TO.N,/DSCLP*%
X113919000Y-104013000D02*
X113919000Y-104114600D01*
X113868200Y-104063800D02*
X113919000Y-104013000D01*
X114808000Y-103124000D02*
X113868200Y-104063800D01*
X112801400Y-103505000D02*
X113309400Y-103505000D01*
X113309400Y-103505000D02*
X113919000Y-104114600D01*
X113919000Y-104114600D02*
X114808000Y-105003600D01*
%TO.N,/DSCLM*%
X113919000Y-108077000D02*
X113919000Y-107975400D01*
X113868200Y-108026200D02*
X113919000Y-108077000D01*
X114808000Y-108966000D02*
X113868200Y-108026200D01*
X112801400Y-108585000D02*
X113309400Y-108585000D01*
X113309400Y-108585000D02*
X113919000Y-107975400D01*
X113919000Y-107975400D02*
X114808000Y-107086400D01*
%TO.N,VAA*%
X109220000Y-104775000D02*
X109220000Y-103505000D01*
X109220000Y-103505000D02*
X109220000Y-103632000D01*
X109220000Y-103632000D02*
X109220000Y-103505000D01*
X107721400Y-103505000D02*
X109220000Y-103505000D01*
X109220000Y-103505000D02*
X110718600Y-103505000D01*
%TO.N,GND*%
X109220000Y-107315000D02*
X109220000Y-108585000D01*
X107721400Y-108585000D02*
X109220000Y-108585000D01*
X109220000Y-108585000D02*
X110718600Y-108585000D01*
%TO.N,/DSDAP*%
X104508300Y-104000300D02*
X104508300Y-104127300D01*
X103632000Y-103124000D02*
X104508300Y-104000300D01*
X105638600Y-103505000D02*
X105130600Y-103505000D01*
X105130600Y-103505000D02*
X104508300Y-104127300D01*
X104508300Y-104127300D02*
X103632000Y-105003600D01*
%TO.N,/DSDAM*%
X104521000Y-108077000D02*
X104521000Y-107975400D01*
X104571800Y-108026200D02*
X104521000Y-108077000D01*
X103632000Y-108966000D02*
X104571800Y-108026200D01*
X105638600Y-108585000D02*
X105130600Y-108585000D01*
X105130600Y-108585000D02*
X104521000Y-107975400D01*
X104521000Y-107975400D02*
X103632000Y-107086400D01*
%TD*%
D15*
%TO.N,VAA*%
G36*
X116420900Y-110070900D02*
X102019100Y-110070900D01*
X102019100Y-106692700D01*
X102469334Y-106692700D01*
X102469334Y-107480100D01*
X102496933Y-107618848D01*
X102575527Y-107736473D01*
X102693152Y-107815067D01*
X102831900Y-107842666D01*
X103310636Y-107842666D01*
X103494170Y-108026200D01*
X103270859Y-108249511D01*
X103179372Y-108287313D01*
X102954104Y-108512188D01*
X102832039Y-108806152D01*
X102831761Y-109124452D01*
X102953313Y-109418628D01*
X103178188Y-109643896D01*
X103472152Y-109765961D01*
X103790452Y-109766239D01*
X104084628Y-109644687D01*
X104309896Y-109419812D01*
X104348297Y-109327333D01*
X104571800Y-109103830D01*
X104591785Y-109123816D01*
X104838996Y-109288997D01*
X104882334Y-109297617D01*
X104882334Y-109385100D01*
X104909933Y-109523848D01*
X104988527Y-109641473D01*
X105106152Y-109720067D01*
X105244900Y-109747666D01*
X106032300Y-109747666D01*
X106171048Y-109720067D01*
X106288673Y-109641473D01*
X106367267Y-109523848D01*
X106394866Y-109385100D01*
X106394866Y-108613827D01*
X106400600Y-108585000D01*
X106959400Y-108585000D01*
X106965134Y-108613827D01*
X106965134Y-109385100D01*
X106992733Y-109523848D01*
X107071327Y-109641473D01*
X107188952Y-109720067D01*
X107327700Y-109747666D01*
X108115100Y-109747666D01*
X108253848Y-109720067D01*
X108371473Y-109641473D01*
X108450067Y-109523848D01*
X108477666Y-109385100D01*
X108477666Y-109347000D01*
X109962334Y-109347000D01*
X109962334Y-109385100D01*
X109989933Y-109523848D01*
X110068527Y-109641473D01*
X110186152Y-109720067D01*
X110324900Y-109747666D01*
X111112300Y-109747666D01*
X111251048Y-109720067D01*
X111368673Y-109641473D01*
X111447267Y-109523848D01*
X111474866Y-109385100D01*
X111474866Y-108613827D01*
X111480600Y-108585000D01*
X112039400Y-108585000D01*
X112045134Y-108613827D01*
X112045134Y-109385100D01*
X112072733Y-109523848D01*
X112151327Y-109641473D01*
X112268952Y-109720067D01*
X112407700Y-109747666D01*
X113195100Y-109747666D01*
X113333848Y-109720067D01*
X113451473Y-109641473D01*
X113530067Y-109523848D01*
X113557666Y-109385100D01*
X113557666Y-109297617D01*
X113601005Y-109288996D01*
X113848215Y-109123815D01*
X113868200Y-109103830D01*
X114091511Y-109327141D01*
X114129313Y-109418628D01*
X114354188Y-109643896D01*
X114648152Y-109765961D01*
X114966452Y-109766239D01*
X115260628Y-109644687D01*
X115485896Y-109419812D01*
X115607961Y-109125848D01*
X115608239Y-108807548D01*
X115486687Y-108513372D01*
X115261812Y-108288104D01*
X115169333Y-108249703D01*
X114945830Y-108026200D01*
X115129364Y-107842666D01*
X115608100Y-107842666D01*
X115746848Y-107815067D01*
X115864473Y-107736473D01*
X115943067Y-107618848D01*
X115970666Y-107480100D01*
X115970666Y-106692700D01*
X115943067Y-106553952D01*
X115864473Y-106436327D01*
X115746848Y-106357733D01*
X115608100Y-106330134D01*
X114836827Y-106330134D01*
X114808000Y-106324400D01*
X114779173Y-106330134D01*
X114007900Y-106330134D01*
X113869152Y-106357733D01*
X113751527Y-106436327D01*
X113672933Y-106553952D01*
X113645334Y-106692700D01*
X113645334Y-107171436D01*
X113380188Y-107436582D01*
X113380185Y-107436584D01*
X113353623Y-107463146D01*
X113333848Y-107449933D01*
X113195100Y-107422334D01*
X112407700Y-107422334D01*
X112268952Y-107449933D01*
X112151327Y-107528527D01*
X112072733Y-107646152D01*
X112045134Y-107784900D01*
X112045134Y-108556173D01*
X112039400Y-108585000D01*
X111480600Y-108585000D01*
X111474866Y-108556173D01*
X111474866Y-107784900D01*
X111447267Y-107646152D01*
X111368673Y-107528527D01*
X111251048Y-107449933D01*
X111112300Y-107422334D01*
X110324900Y-107422334D01*
X110186152Y-107449933D01*
X110068527Y-107528527D01*
X109989933Y-107646152D01*
X109982000Y-107686033D01*
X109982000Y-107566268D01*
X110019961Y-107474848D01*
X110020239Y-107156548D01*
X109898687Y-106862372D01*
X109673812Y-106637104D01*
X109379848Y-106515039D01*
X109061548Y-106514761D01*
X108767372Y-106636313D01*
X108542104Y-106861188D01*
X108420039Y-107155152D01*
X108419761Y-107473452D01*
X108458000Y-107565997D01*
X108458000Y-107686033D01*
X108450067Y-107646152D01*
X108371473Y-107528527D01*
X108253848Y-107449933D01*
X108115100Y-107422334D01*
X107327700Y-107422334D01*
X107188952Y-107449933D01*
X107071327Y-107528527D01*
X106992733Y-107646152D01*
X106965134Y-107784900D01*
X106965134Y-108556173D01*
X106959400Y-108585000D01*
X106400600Y-108585000D01*
X106394866Y-108556173D01*
X106394866Y-107784900D01*
X106367267Y-107646152D01*
X106288673Y-107528527D01*
X106171048Y-107449933D01*
X106032300Y-107422334D01*
X105244900Y-107422334D01*
X105106152Y-107449933D01*
X105086377Y-107463146D01*
X105059815Y-107436585D01*
X104794666Y-107171436D01*
X104794666Y-106692700D01*
X104767067Y-106553952D01*
X104688473Y-106436327D01*
X104570848Y-106357733D01*
X104432100Y-106330134D01*
X103660822Y-106330134D01*
X103632000Y-106324401D01*
X103603178Y-106330134D01*
X102831900Y-106330134D01*
X102693152Y-106357733D01*
X102575527Y-106436327D01*
X102496933Y-106553952D01*
X102469334Y-106692700D01*
X102019100Y-106692700D01*
X102019100Y-104609900D01*
X102469334Y-104609900D01*
X102469334Y-105397300D01*
X102496933Y-105536048D01*
X102575527Y-105653673D01*
X102693152Y-105732267D01*
X102831900Y-105759866D01*
X103603178Y-105759866D01*
X103632000Y-105765599D01*
X103660822Y-105759866D01*
X104432100Y-105759866D01*
X104570848Y-105732267D01*
X104688473Y-105653673D01*
X104767067Y-105536048D01*
X104794666Y-105397300D01*
X104794666Y-104918565D01*
X105047115Y-104666116D01*
X105047117Y-104666113D01*
X105086376Y-104626854D01*
X105106152Y-104640067D01*
X105244900Y-104667666D01*
X106032300Y-104667666D01*
X106171048Y-104640067D01*
X106288673Y-104561473D01*
X106367267Y-104443848D01*
X106394866Y-104305100D01*
X106394866Y-103809800D01*
X106718100Y-103809800D01*
X106718100Y-104426357D01*
X106810906Y-104650411D01*
X106982389Y-104821894D01*
X107206443Y-104914700D01*
X107416600Y-104914700D01*
X107569000Y-104762300D01*
X107569000Y-103657400D01*
X107873800Y-103657400D01*
X107873800Y-104762300D01*
X108026200Y-104914700D01*
X108236357Y-104914700D01*
X108460411Y-104821894D01*
X108631894Y-104650411D01*
X108724700Y-104426357D01*
X108724700Y-103809800D01*
X109715300Y-103809800D01*
X109715300Y-104426357D01*
X109808106Y-104650411D01*
X109979589Y-104821894D01*
X110203643Y-104914700D01*
X110413800Y-104914700D01*
X110566200Y-104762300D01*
X110566200Y-103657400D01*
X110871000Y-103657400D01*
X110871000Y-104762300D01*
X111023400Y-104914700D01*
X111233557Y-104914700D01*
X111457611Y-104821894D01*
X111629094Y-104650411D01*
X111721900Y-104426357D01*
X111721900Y-103809800D01*
X111569500Y-103657400D01*
X110871000Y-103657400D01*
X110566200Y-103657400D01*
X109867700Y-103657400D01*
X109715300Y-103809800D01*
X108724700Y-103809800D01*
X108572300Y-103657400D01*
X107873800Y-103657400D01*
X107569000Y-103657400D01*
X106870500Y-103657400D01*
X106718100Y-103809800D01*
X106394866Y-103809800D01*
X106394866Y-103533827D01*
X106400600Y-103505000D01*
X112039400Y-103505000D01*
X112045134Y-103533827D01*
X112045134Y-104305100D01*
X112072733Y-104443848D01*
X112151327Y-104561473D01*
X112268952Y-104640067D01*
X112407700Y-104667666D01*
X113195100Y-104667666D01*
X113333848Y-104640067D01*
X113353623Y-104626854D01*
X113380185Y-104653416D01*
X113380188Y-104653418D01*
X113645334Y-104918564D01*
X113645334Y-105397300D01*
X113672933Y-105536048D01*
X113751527Y-105653673D01*
X113869152Y-105732267D01*
X114007900Y-105759866D01*
X114779173Y-105759866D01*
X114808000Y-105765600D01*
X114836827Y-105759866D01*
X115608100Y-105759866D01*
X115746848Y-105732267D01*
X115864473Y-105653673D01*
X115943067Y-105536048D01*
X115970666Y-105397300D01*
X115970666Y-104609900D01*
X115943067Y-104471152D01*
X115864473Y-104353527D01*
X115746848Y-104274933D01*
X115608100Y-104247334D01*
X115129364Y-104247334D01*
X114945830Y-104063800D01*
X115169141Y-103840489D01*
X115260628Y-103802687D01*
X115485896Y-103577812D01*
X115607961Y-103283848D01*
X115608239Y-102965548D01*
X115486687Y-102671372D01*
X115261812Y-102446104D01*
X114967848Y-102324039D01*
X114649548Y-102323761D01*
X114355372Y-102445313D01*
X114130104Y-102670188D01*
X114091703Y-102762667D01*
X113868200Y-102986170D01*
X113848215Y-102966185D01*
X113845172Y-102964152D01*
X113601005Y-102801004D01*
X113557666Y-102792383D01*
X113557666Y-102704900D01*
X113530067Y-102566152D01*
X113451473Y-102448527D01*
X113333848Y-102369933D01*
X113195100Y-102342334D01*
X112407700Y-102342334D01*
X112268952Y-102369933D01*
X112151327Y-102448527D01*
X112072733Y-102566152D01*
X112045134Y-102704900D01*
X112045134Y-103476173D01*
X112039400Y-103505000D01*
X106400600Y-103505000D01*
X106394866Y-103476173D01*
X106394866Y-102704900D01*
X106370747Y-102583643D01*
X106718100Y-102583643D01*
X106718100Y-103200200D01*
X106870500Y-103352600D01*
X107569000Y-103352600D01*
X107569000Y-102247700D01*
X107873800Y-102247700D01*
X107873800Y-103352600D01*
X108572300Y-103352600D01*
X108724700Y-103200200D01*
X108724700Y-102583643D01*
X109715300Y-102583643D01*
X109715300Y-103200200D01*
X109867700Y-103352600D01*
X110566200Y-103352600D01*
X110566200Y-102247700D01*
X110871000Y-102247700D01*
X110871000Y-103352600D01*
X111569500Y-103352600D01*
X111721900Y-103200200D01*
X111721900Y-102583643D01*
X111629094Y-102359589D01*
X111457611Y-102188106D01*
X111233557Y-102095300D01*
X111023400Y-102095300D01*
X110871000Y-102247700D01*
X110566200Y-102247700D01*
X110413800Y-102095300D01*
X110203643Y-102095300D01*
X109979589Y-102188106D01*
X109808106Y-102359589D01*
X109715300Y-102583643D01*
X108724700Y-102583643D01*
X108631894Y-102359589D01*
X108460411Y-102188106D01*
X108236357Y-102095300D01*
X108026200Y-102095300D01*
X107873800Y-102247700D01*
X107569000Y-102247700D01*
X107416600Y-102095300D01*
X107206443Y-102095300D01*
X106982389Y-102188106D01*
X106810906Y-102359589D01*
X106718100Y-102583643D01*
X106370747Y-102583643D01*
X106367267Y-102566152D01*
X106288673Y-102448527D01*
X106171048Y-102369933D01*
X106032300Y-102342334D01*
X105244900Y-102342334D01*
X105106152Y-102369933D01*
X104988527Y-102448527D01*
X104909933Y-102566152D01*
X104882334Y-102704900D01*
X104882334Y-102792383D01*
X104838995Y-102801004D01*
X104591785Y-102966185D01*
X104571800Y-102986170D01*
X104348489Y-102762859D01*
X104310687Y-102671372D01*
X104085812Y-102446104D01*
X103791848Y-102324039D01*
X103473548Y-102323761D01*
X103179372Y-102445313D01*
X102954104Y-102670188D01*
X102832039Y-102964152D01*
X102831761Y-103282452D01*
X102953313Y-103576628D01*
X103178188Y-103801896D01*
X103270666Y-103840296D01*
X103494170Y-104063800D01*
X103310636Y-104247334D01*
X102831900Y-104247334D01*
X102693152Y-104274933D01*
X102575527Y-104353527D01*
X102496933Y-104471152D01*
X102469334Y-104609900D01*
X102019100Y-104609900D01*
X102019100Y-102019100D01*
X116420900Y-102019100D01*
X116420900Y-110070900D01*
X116420900Y-110070900D01*
G37*
X116420900Y-110070900D02*
X102019100Y-110070900D01*
X102019100Y-106692700D01*
X102469334Y-106692700D01*
X102469334Y-107480100D01*
X102496933Y-107618848D01*
X102575527Y-107736473D01*
X102693152Y-107815067D01*
X102831900Y-107842666D01*
X103310636Y-107842666D01*
X103494170Y-108026200D01*
X103270859Y-108249511D01*
X103179372Y-108287313D01*
X102954104Y-108512188D01*
X102832039Y-108806152D01*
X102831761Y-109124452D01*
X102953313Y-109418628D01*
X103178188Y-109643896D01*
X103472152Y-109765961D01*
X103790452Y-109766239D01*
X104084628Y-109644687D01*
X104309896Y-109419812D01*
X104348297Y-109327333D01*
X104571800Y-109103830D01*
X104591785Y-109123816D01*
X104838996Y-109288997D01*
X104882334Y-109297617D01*
X104882334Y-109385100D01*
X104909933Y-109523848D01*
X104988527Y-109641473D01*
X105106152Y-109720067D01*
X105244900Y-109747666D01*
X106032300Y-109747666D01*
X106171048Y-109720067D01*
X106288673Y-109641473D01*
X106367267Y-109523848D01*
X106394866Y-109385100D01*
X106394866Y-108613827D01*
X106400600Y-108585000D01*
X106959400Y-108585000D01*
X106965134Y-108613827D01*
X106965134Y-109385100D01*
X106992733Y-109523848D01*
X107071327Y-109641473D01*
X107188952Y-109720067D01*
X107327700Y-109747666D01*
X108115100Y-109747666D01*
X108253848Y-109720067D01*
X108371473Y-109641473D01*
X108450067Y-109523848D01*
X108477666Y-109385100D01*
X108477666Y-109347000D01*
X109962334Y-109347000D01*
X109962334Y-109385100D01*
X109989933Y-109523848D01*
X110068527Y-109641473D01*
X110186152Y-109720067D01*
X110324900Y-109747666D01*
X111112300Y-109747666D01*
X111251048Y-109720067D01*
X111368673Y-109641473D01*
X111447267Y-109523848D01*
X111474866Y-109385100D01*
X111474866Y-108613827D01*
X111480600Y-108585000D01*
X112039400Y-108585000D01*
X112045134Y-108613827D01*
X112045134Y-109385100D01*
X112072733Y-109523848D01*
X112151327Y-109641473D01*
X112268952Y-109720067D01*
X112407700Y-109747666D01*
X113195100Y-109747666D01*
X113333848Y-109720067D01*
X113451473Y-109641473D01*
X113530067Y-109523848D01*
X113557666Y-109385100D01*
X113557666Y-109297617D01*
X113601005Y-109288996D01*
X113848215Y-109123815D01*
X113868200Y-109103830D01*
X114091511Y-109327141D01*
X114129313Y-109418628D01*
X114354188Y-109643896D01*
X114648152Y-109765961D01*
X114966452Y-109766239D01*
X115260628Y-109644687D01*
X115485896Y-109419812D01*
X115607961Y-109125848D01*
X115608239Y-108807548D01*
X115486687Y-108513372D01*
X115261812Y-108288104D01*
X115169333Y-108249703D01*
X114945830Y-108026200D01*
X115129364Y-107842666D01*
X115608100Y-107842666D01*
X115746848Y-107815067D01*
X115864473Y-107736473D01*
X115943067Y-107618848D01*
X115970666Y-107480100D01*
X115970666Y-106692700D01*
X115943067Y-106553952D01*
X115864473Y-106436327D01*
X115746848Y-106357733D01*
X115608100Y-106330134D01*
X114836827Y-106330134D01*
X114808000Y-106324400D01*
X114779173Y-106330134D01*
X114007900Y-106330134D01*
X113869152Y-106357733D01*
X113751527Y-106436327D01*
X113672933Y-106553952D01*
X113645334Y-106692700D01*
X113645334Y-107171436D01*
X113380188Y-107436582D01*
X113380185Y-107436584D01*
X113353623Y-107463146D01*
X113333848Y-107449933D01*
X113195100Y-107422334D01*
X112407700Y-107422334D01*
X112268952Y-107449933D01*
X112151327Y-107528527D01*
X112072733Y-107646152D01*
X112045134Y-107784900D01*
X112045134Y-108556173D01*
X112039400Y-108585000D01*
X111480600Y-108585000D01*
X111474866Y-108556173D01*
X111474866Y-107784900D01*
X111447267Y-107646152D01*
X111368673Y-107528527D01*
X111251048Y-107449933D01*
X111112300Y-107422334D01*
X110324900Y-107422334D01*
X110186152Y-107449933D01*
X110068527Y-107528527D01*
X109989933Y-107646152D01*
X109982000Y-107686033D01*
X109982000Y-107566268D01*
X110019961Y-107474848D01*
X110020239Y-107156548D01*
X109898687Y-106862372D01*
X109673812Y-106637104D01*
X109379848Y-106515039D01*
X109061548Y-106514761D01*
X108767372Y-106636313D01*
X108542104Y-106861188D01*
X108420039Y-107155152D01*
X108419761Y-107473452D01*
X108458000Y-107565997D01*
X108458000Y-107686033D01*
X108450067Y-107646152D01*
X108371473Y-107528527D01*
X108253848Y-107449933D01*
X108115100Y-107422334D01*
X107327700Y-107422334D01*
X107188952Y-107449933D01*
X107071327Y-107528527D01*
X106992733Y-107646152D01*
X106965134Y-107784900D01*
X106965134Y-108556173D01*
X106959400Y-108585000D01*
X106400600Y-108585000D01*
X106394866Y-108556173D01*
X106394866Y-107784900D01*
X106367267Y-107646152D01*
X106288673Y-107528527D01*
X106171048Y-107449933D01*
X106032300Y-107422334D01*
X105244900Y-107422334D01*
X105106152Y-107449933D01*
X105086377Y-107463146D01*
X105059815Y-107436585D01*
X104794666Y-107171436D01*
X104794666Y-106692700D01*
X104767067Y-106553952D01*
X104688473Y-106436327D01*
X104570848Y-106357733D01*
X104432100Y-106330134D01*
X103660822Y-106330134D01*
X103632000Y-106324401D01*
X103603178Y-106330134D01*
X102831900Y-106330134D01*
X102693152Y-106357733D01*
X102575527Y-106436327D01*
X102496933Y-106553952D01*
X102469334Y-106692700D01*
X102019100Y-106692700D01*
X102019100Y-104609900D01*
X102469334Y-104609900D01*
X102469334Y-105397300D01*
X102496933Y-105536048D01*
X102575527Y-105653673D01*
X102693152Y-105732267D01*
X102831900Y-105759866D01*
X103603178Y-105759866D01*
X103632000Y-105765599D01*
X103660822Y-105759866D01*
X104432100Y-105759866D01*
X104570848Y-105732267D01*
X104688473Y-105653673D01*
X104767067Y-105536048D01*
X104794666Y-105397300D01*
X104794666Y-104918565D01*
X105047115Y-104666116D01*
X105047117Y-104666113D01*
X105086376Y-104626854D01*
X105106152Y-104640067D01*
X105244900Y-104667666D01*
X106032300Y-104667666D01*
X106171048Y-104640067D01*
X106288673Y-104561473D01*
X106367267Y-104443848D01*
X106394866Y-104305100D01*
X106394866Y-103809800D01*
X106718100Y-103809800D01*
X106718100Y-104426357D01*
X106810906Y-104650411D01*
X106982389Y-104821894D01*
X107206443Y-104914700D01*
X107416600Y-104914700D01*
X107569000Y-104762300D01*
X107569000Y-103657400D01*
X107873800Y-103657400D01*
X107873800Y-104762300D01*
X108026200Y-104914700D01*
X108236357Y-104914700D01*
X108460411Y-104821894D01*
X108631894Y-104650411D01*
X108724700Y-104426357D01*
X108724700Y-103809800D01*
X109715300Y-103809800D01*
X109715300Y-104426357D01*
X109808106Y-104650411D01*
X109979589Y-104821894D01*
X110203643Y-104914700D01*
X110413800Y-104914700D01*
X110566200Y-104762300D01*
X110566200Y-103657400D01*
X110871000Y-103657400D01*
X110871000Y-104762300D01*
X111023400Y-104914700D01*
X111233557Y-104914700D01*
X111457611Y-104821894D01*
X111629094Y-104650411D01*
X111721900Y-104426357D01*
X111721900Y-103809800D01*
X111569500Y-103657400D01*
X110871000Y-103657400D01*
X110566200Y-103657400D01*
X109867700Y-103657400D01*
X109715300Y-103809800D01*
X108724700Y-103809800D01*
X108572300Y-103657400D01*
X107873800Y-103657400D01*
X107569000Y-103657400D01*
X106870500Y-103657400D01*
X106718100Y-103809800D01*
X106394866Y-103809800D01*
X106394866Y-103533827D01*
X106400600Y-103505000D01*
X112039400Y-103505000D01*
X112045134Y-103533827D01*
X112045134Y-104305100D01*
X112072733Y-104443848D01*
X112151327Y-104561473D01*
X112268952Y-104640067D01*
X112407700Y-104667666D01*
X113195100Y-104667666D01*
X113333848Y-104640067D01*
X113353623Y-104626854D01*
X113380185Y-104653416D01*
X113380188Y-104653418D01*
X113645334Y-104918564D01*
X113645334Y-105397300D01*
X113672933Y-105536048D01*
X113751527Y-105653673D01*
X113869152Y-105732267D01*
X114007900Y-105759866D01*
X114779173Y-105759866D01*
X114808000Y-105765600D01*
X114836827Y-105759866D01*
X115608100Y-105759866D01*
X115746848Y-105732267D01*
X115864473Y-105653673D01*
X115943067Y-105536048D01*
X115970666Y-105397300D01*
X115970666Y-104609900D01*
X115943067Y-104471152D01*
X115864473Y-104353527D01*
X115746848Y-104274933D01*
X115608100Y-104247334D01*
X115129364Y-104247334D01*
X114945830Y-104063800D01*
X115169141Y-103840489D01*
X115260628Y-103802687D01*
X115485896Y-103577812D01*
X115607961Y-103283848D01*
X115608239Y-102965548D01*
X115486687Y-102671372D01*
X115261812Y-102446104D01*
X114967848Y-102324039D01*
X114649548Y-102323761D01*
X114355372Y-102445313D01*
X114130104Y-102670188D01*
X114091703Y-102762667D01*
X113868200Y-102986170D01*
X113848215Y-102966185D01*
X113845172Y-102964152D01*
X113601005Y-102801004D01*
X113557666Y-102792383D01*
X113557666Y-102704900D01*
X113530067Y-102566152D01*
X113451473Y-102448527D01*
X113333848Y-102369933D01*
X113195100Y-102342334D01*
X112407700Y-102342334D01*
X112268952Y-102369933D01*
X112151327Y-102448527D01*
X112072733Y-102566152D01*
X112045134Y-102704900D01*
X112045134Y-103476173D01*
X112039400Y-103505000D01*
X106400600Y-103505000D01*
X106394866Y-103476173D01*
X106394866Y-102704900D01*
X106370747Y-102583643D01*
X106718100Y-102583643D01*
X106718100Y-103200200D01*
X106870500Y-103352600D01*
X107569000Y-103352600D01*
X107569000Y-102247700D01*
X107873800Y-102247700D01*
X107873800Y-103352600D01*
X108572300Y-103352600D01*
X108724700Y-103200200D01*
X108724700Y-102583643D01*
X109715300Y-102583643D01*
X109715300Y-103200200D01*
X109867700Y-103352600D01*
X110566200Y-103352600D01*
X110566200Y-102247700D01*
X110871000Y-102247700D01*
X110871000Y-103352600D01*
X111569500Y-103352600D01*
X111721900Y-103200200D01*
X111721900Y-102583643D01*
X111629094Y-102359589D01*
X111457611Y-102188106D01*
X111233557Y-102095300D01*
X111023400Y-102095300D01*
X110871000Y-102247700D01*
X110566200Y-102247700D01*
X110413800Y-102095300D01*
X110203643Y-102095300D01*
X109979589Y-102188106D01*
X109808106Y-102359589D01*
X109715300Y-102583643D01*
X108724700Y-102583643D01*
X108631894Y-102359589D01*
X108460411Y-102188106D01*
X108236357Y-102095300D01*
X108026200Y-102095300D01*
X107873800Y-102247700D01*
X107569000Y-102247700D01*
X107416600Y-102095300D01*
X107206443Y-102095300D01*
X106982389Y-102188106D01*
X106810906Y-102359589D01*
X106718100Y-102583643D01*
X106370747Y-102583643D01*
X106367267Y-102566152D01*
X106288673Y-102448527D01*
X106171048Y-102369933D01*
X106032300Y-102342334D01*
X105244900Y-102342334D01*
X105106152Y-102369933D01*
X104988527Y-102448527D01*
X104909933Y-102566152D01*
X104882334Y-102704900D01*
X104882334Y-102792383D01*
X104838995Y-102801004D01*
X104591785Y-102966185D01*
X104571800Y-102986170D01*
X104348489Y-102762859D01*
X104310687Y-102671372D01*
X104085812Y-102446104D01*
X103791848Y-102324039D01*
X103473548Y-102323761D01*
X103179372Y-102445313D01*
X102954104Y-102670188D01*
X102832039Y-102964152D01*
X102831761Y-103282452D01*
X102953313Y-103576628D01*
X103178188Y-103801896D01*
X103270666Y-103840296D01*
X103494170Y-104063800D01*
X103310636Y-104247334D01*
X102831900Y-104247334D01*
X102693152Y-104274933D01*
X102575527Y-104353527D01*
X102496933Y-104471152D01*
X102469334Y-104609900D01*
X102019100Y-104609900D01*
X102019100Y-102019100D01*
X116420900Y-102019100D01*
X116420900Y-110070900D01*
%TD*%
M02*
